<svg xmlns="http://www.w3.org/2000/svg" viewBox="0 0 64 64" fill="none">
  <defs>
    <linearGradient id="bg" x1="8" y1="6" x2="58" y2="58" gradientUnits="userSpaceOnUse">
      <stop stop-color="#7FDFFF"/>
      <stop offset="1" stop-color="#2E8FFF"/>
    </linearGradient>
  </defs>
  <rect x="6" y="6" width="52" height="52" rx="14" fill="#08121D"/>
  <rect x="8" y="8" width="48" height="48" rx="12" fill="url(#bg)" fill-opacity="0.18"/>
  <path d="M22 20H38C43.523 20 48 24.477 48 30C48 35.523 43.523 40 38 40H22V20Z" fill="url(#bg)"/>
  <path d="M26 24H37.5C40.538 24 43 26.462 43 29.5C43 32.538 40.538 35 37.5 35H31V30H36.5C37.881 30 39 28.881 39 27.5C39 26.119 37.881 25 36.5 25H31V40H26V24Z" fill="#08121D"/>
  <path d="M18 24H24V40H18V24Z" fill="#DDEAF6"/>
</svg>
